<mxfile host="app.diagrams.net" modified="2024-01-22T12:50:04.579Z" agent="Mozilla/5.0 (Windows NT 10.0; Win64; x64) AppleWebKit/537.36 (KHTML, like Gecko) Chrome/120.0.0.0 Safari/537.36" version="22.1.21" etag="JH2WVBrsG6D4QU19XdJy" type="github">
  <diagram name="Halaman-1" id="JNSaYwjh1nSYmDwidapQ">
    <mxGraphModel>
      <root>
        <mxCell id="0" />
        <mxCell id="1" parent="0" />
      </root>
    </mxGraphModel>
  </diagram>
</mxfile>
